<svg width="365" height="95" viewBox="0 0 365 95" fill="none" xmlns="http://www.w3.org/2000/svg">
<mask id="path-1-inside-1_106066_1228" fill="white">
<path d="M188.961 0H169.577V94.9936H188.961V0Z"/>
<path d="M0 0.105088H20.5761V42.719L59.0445 0.105088H83.9943L48.7067 39.1679L86.2805 95H61.6289L34.1941 54.9508L20.5761 70.0432V95H0V0.105088Z"/>
<path fill-rule="evenodd" clip-rule="evenodd" d="M162.123 94.1053H152.282C143.435 94.1053 139.062 90.2583 139.26 82.6627C136.676 86.6085 133.495 89.6664 129.817 91.7379C126.04 93.8094 121.567 94.8945 116.199 94.8945C108.346 94.8945 101.985 93.1189 97.1141 89.5678C92.3428 85.9179 89.9572 80.8871 89.9572 74.3767C89.9572 66.9784 92.7404 61.2571 98.2075 57.3114C103.774 53.267 111.826 51.1955 122.362 51.1955H136.378V47.8416C136.378 44.685 135.185 42.2189 132.799 40.3447C130.414 38.4705 127.233 37.4841 123.157 37.4841C119.579 37.4841 116.696 38.2732 114.41 39.7528C112.124 41.3311 110.732 43.4027 110.335 45.9674H91.5476C92.144 38.8651 95.4243 33.341 101.19 29.3953C106.955 25.4496 114.609 23.378 124.151 23.378C134.091 23.378 141.845 25.5482 147.212 29.8885C152.68 34.2288 155.463 40.542 155.463 48.7294V73.2916C155.463 74.9685 155.86 76.1523 156.556 76.8428C157.252 77.4346 158.445 77.8292 160.035 77.8292H162.123V94.1053ZM122.163 63.9205C118.187 63.9205 115.006 64.7096 112.72 66.3866C110.533 67.9649 109.44 70.135 109.44 72.9957C109.44 75.4618 110.335 77.336 112.223 78.8156C114.112 80.2953 116.696 80.9858 119.877 80.9858C124.947 80.9858 128.923 79.6048 131.805 76.7441C134.688 73.8835 136.278 70.0364 136.378 65.2028V63.9205H122.163Z"/>
<path d="M214.705 70.9242C215.004 73.9822 216.495 76.4482 219.278 78.4211C222.061 80.2953 225.54 81.2818 229.814 81.2818C233.89 81.2818 237.17 80.6899 239.556 79.4075C241.941 78.0265 243.134 76.1523 243.134 73.6862C243.134 71.9107 242.538 70.5296 241.444 69.6419C240.351 68.7541 238.76 68.0636 236.772 67.7676C234.784 67.2744 231.504 66.7812 226.932 66.288C220.669 65.4988 215.501 64.4138 211.425 63.1314C207.35 61.849 203.97 59.8762 201.584 57.1142C199.099 54.3521 197.906 50.801 197.906 46.2634C197.906 41.7258 199.099 37.7801 201.584 34.3275C204.169 30.7764 207.747 28.113 212.32 26.1401C216.892 24.2659 222.16 23.2795 228.124 23.2795C237.766 23.3781 245.42 25.4496 251.285 29.3954C257.249 33.3411 260.43 38.8651 260.927 45.9674H242.538C242.24 43.3041 240.848 41.2326 238.263 39.5556C235.778 37.8787 232.598 36.9909 228.622 36.9909C224.944 36.9909 221.962 37.6814 219.675 39.0624C217.489 40.4434 216.395 42.219 216.395 44.4878C216.395 46.1647 216.992 47.3485 218.184 48.1376C219.377 48.9268 220.968 49.5186 222.856 49.9132C224.745 50.3078 228.025 50.7023 232.498 51.0969C242.041 52.182 249.297 54.2535 254.267 57.2128C259.436 60.0735 261.921 65.1043 261.921 72.3052C261.921 76.8428 260.529 80.7886 257.846 84.2411C255.162 87.6936 251.484 90.357 246.613 92.2312C241.842 94.0068 236.275 94.9932 230.013 94.9932C220.272 94.9932 212.22 92.823 206.157 88.5814C199.994 84.2411 196.813 78.3225 196.415 70.9242H214.705Z"/>
<path d="M330.112 31.9605C324.744 26.9296 317.985 24.3649 309.635 24.3649C300.987 24.3649 294.029 27.5215 288.761 33.8347V0H269.378V94.9936H288.761V59.186C288.761 53.1688 290.053 48.5325 292.836 45.1787C295.62 41.8248 299.496 40.1479 304.466 40.1479C309.238 40.1479 312.816 41.7261 315.202 44.7841C317.587 47.7434 318.78 52.0837 318.78 57.9037V94.9936H338.164V57.1145C338.164 45.3759 335.48 36.9913 330.112 31.9605Z"/>
<path d="M345.617 25.1537H365V94.8945H345.617V25.1537Z"/>
<path d="M362.12 2.76201C360.331 0.986434 358.044 0 355.261 0C352.577 0 350.192 0.986434 348.303 2.76201C346.514 4.53759 345.52 6.70775 345.52 9.37112C345.52 12.0345 346.514 14.3033 348.303 16.0789C350.192 17.8545 352.577 18.8409 355.261 18.8409C357.945 18.8409 360.331 17.9531 362.12 16.0789C363.909 14.2046 364.903 12.0345 364.903 9.37112C364.903 6.70775 363.909 4.43895 362.12 2.76201Z"/>
</mask>
<path d="M188.961 0H169.577V94.9936H188.961V0Z" fill="black"/>
<path d="M0 0.105088H20.5761V42.719L59.0445 0.105088H83.9943L48.7067 39.1679L86.2805 95H61.6289L34.1941 54.9508L20.5761 70.0432V95H0V0.105088Z" fill="black"/>
<path fill-rule="evenodd" clip-rule="evenodd" d="M162.123 94.1053H152.282C143.435 94.1053 139.062 90.2583 139.26 82.6627C136.676 86.6085 133.495 89.6664 129.817 91.7379C126.04 93.8094 121.567 94.8945 116.199 94.8945C108.346 94.8945 101.985 93.1189 97.1141 89.5678C92.3428 85.9179 89.9572 80.8871 89.9572 74.3767C89.9572 66.9784 92.7404 61.2571 98.2075 57.3114C103.774 53.267 111.826 51.1955 122.362 51.1955H136.378V47.8416C136.378 44.685 135.185 42.2189 132.799 40.3447C130.414 38.4705 127.233 37.4841 123.157 37.4841C119.579 37.4841 116.696 38.2732 114.41 39.7528C112.124 41.3311 110.732 43.4027 110.335 45.9674H91.5476C92.144 38.8651 95.4243 33.341 101.19 29.3953C106.955 25.4496 114.609 23.378 124.151 23.378C134.091 23.378 141.845 25.5482 147.212 29.8885C152.68 34.2288 155.463 40.542 155.463 48.7294V73.2916C155.463 74.9685 155.86 76.1523 156.556 76.8428C157.252 77.4346 158.445 77.8292 160.035 77.8292H162.123V94.1053ZM122.163 63.9205C118.187 63.9205 115.006 64.7096 112.72 66.3866C110.533 67.9649 109.44 70.135 109.44 72.9957C109.44 75.4618 110.335 77.336 112.223 78.8156C114.112 80.2953 116.696 80.9858 119.877 80.9858C124.947 80.9858 128.923 79.6048 131.805 76.7441C134.688 73.8835 136.278 70.0364 136.378 65.2028V63.9205H122.163Z" fill="black"/>
<path d="M214.705 70.9242C215.004 73.9822 216.495 76.4482 219.278 78.4211C222.061 80.2953 225.54 81.2818 229.814 81.2818C233.89 81.2818 237.17 80.6899 239.556 79.4075C241.941 78.0265 243.134 76.1523 243.134 73.6862C243.134 71.9107 242.538 70.5296 241.444 69.6419C240.351 68.7541 238.76 68.0636 236.772 67.7676C234.784 67.2744 231.504 66.7812 226.932 66.288C220.669 65.4988 215.501 64.4138 211.425 63.1314C207.35 61.849 203.97 59.8762 201.584 57.1142C199.099 54.3521 197.906 50.801 197.906 46.2634C197.906 41.7258 199.099 37.7801 201.584 34.3275C204.169 30.7764 207.747 28.113 212.32 26.1401C216.892 24.2659 222.16 23.2795 228.124 23.2795C237.766 23.3781 245.42 25.4496 251.285 29.3954C257.249 33.3411 260.43 38.8651 260.927 45.9674H242.538C242.24 43.3041 240.848 41.2326 238.263 39.5556C235.778 37.8787 232.598 36.9909 228.622 36.9909C224.944 36.9909 221.962 37.6814 219.675 39.0624C217.489 40.4434 216.395 42.219 216.395 44.4878C216.395 46.1647 216.992 47.3485 218.184 48.1376C219.377 48.9268 220.968 49.5186 222.856 49.9132C224.745 50.3078 228.025 50.7023 232.498 51.0969C242.041 52.182 249.297 54.2535 254.267 57.2128C259.436 60.0735 261.921 65.1043 261.921 72.3052C261.921 76.8428 260.529 80.7886 257.846 84.2411C255.162 87.6936 251.484 90.357 246.613 92.2312C241.842 94.0068 236.275 94.9932 230.013 94.9932C220.272 94.9932 212.22 92.823 206.157 88.5814C199.994 84.2411 196.813 78.3225 196.415 70.9242H214.705Z" fill="black"/>
<path d="M330.112 31.9605C324.744 26.9296 317.985 24.3649 309.635 24.3649C300.987 24.3649 294.029 27.5215 288.761 33.8347V0H269.378V94.9936H288.761V59.186C288.761 53.1688 290.053 48.5325 292.836 45.1787C295.62 41.8248 299.496 40.1479 304.466 40.1479C309.238 40.1479 312.816 41.7261 315.202 44.7841C317.587 47.7434 318.78 52.0837 318.78 57.9037V94.9936H338.164V57.1145C338.164 45.3759 335.48 36.9913 330.112 31.9605Z" fill="black"/>
<path d="M345.617 25.1537H365V94.8945H345.617V25.1537Z" fill="black"/>
<path d="M362.12 2.76201C360.331 0.986434 358.044 0 355.261 0C352.577 0 350.192 0.986434 348.303 2.76201C346.514 4.53759 345.52 6.70775 345.52 9.37112C345.52 12.0345 346.514 14.3033 348.303 16.0789C350.192 17.8545 352.577 18.8409 355.261 18.8409C357.945 18.8409 360.331 17.9531 362.12 16.0789C363.909 14.2046 364.903 12.0345 364.903 9.37112C364.903 6.70775 363.909 4.43895 362.12 2.76201Z" fill="black"/>
<path d="M188.961 0H169.577V94.9936H188.961V0Z" stroke="black" stroke-width="2" mask="url(#path-1-inside-1_106066_1228)"/>
<path d="M0 0.105088H20.5761V42.719L59.0445 0.105088H83.9943L48.7067 39.1679L86.2805 95H61.6289L34.1941 54.9508L20.5761 70.0432V95H0V0.105088Z" stroke="black" stroke-width="2" mask="url(#path-1-inside-1_106066_1228)"/>
<path fill-rule="evenodd" clip-rule="evenodd" d="M162.123 94.1053H152.282C143.435 94.1053 139.062 90.2583 139.26 82.6627C136.676 86.6085 133.495 89.6664 129.817 91.7379C126.04 93.8094 121.567 94.8945 116.199 94.8945C108.346 94.8945 101.985 93.1189 97.1141 89.5678C92.3428 85.9179 89.9572 80.8871 89.9572 74.3767C89.9572 66.9784 92.7404 61.2571 98.2075 57.3114C103.774 53.267 111.826 51.1955 122.362 51.1955H136.378V47.8416C136.378 44.685 135.185 42.2189 132.799 40.3447C130.414 38.4705 127.233 37.4841 123.157 37.4841C119.579 37.4841 116.696 38.2732 114.41 39.7528C112.124 41.3311 110.732 43.4027 110.335 45.9674H91.5476C92.144 38.8651 95.4243 33.341 101.19 29.3953C106.955 25.4496 114.609 23.378 124.151 23.378C134.091 23.378 141.845 25.5482 147.212 29.8885C152.68 34.2288 155.463 40.542 155.463 48.7294V73.2916C155.463 74.9685 155.86 76.1523 156.556 76.8428C157.252 77.4346 158.445 77.8292 160.035 77.8292H162.123V94.1053ZM122.163 63.9205C118.187 63.9205 115.006 64.7096 112.72 66.3866C110.533 67.9649 109.44 70.135 109.44 72.9957C109.44 75.4618 110.335 77.336 112.223 78.8156C114.112 80.2953 116.696 80.9858 119.877 80.9858C124.947 80.9858 128.923 79.6048 131.805 76.7441C134.688 73.8835 136.278 70.0364 136.378 65.2028V63.9205H122.163Z" stroke="black" stroke-width="2" mask="url(#path-1-inside-1_106066_1228)"/>
<path d="M214.705 70.9242C215.004 73.9822 216.495 76.4482 219.278 78.4211C222.061 80.2953 225.54 81.2818 229.814 81.2818C233.89 81.2818 237.17 80.6899 239.556 79.4075C241.941 78.0265 243.134 76.1523 243.134 73.6862C243.134 71.9107 242.538 70.5296 241.444 69.6419C240.351 68.7541 238.76 68.0636 236.772 67.7676C234.784 67.2744 231.504 66.7812 226.932 66.288C220.669 65.4988 215.501 64.4138 211.425 63.1314C207.35 61.849 203.97 59.8762 201.584 57.1142C199.099 54.3521 197.906 50.801 197.906 46.2634C197.906 41.7258 199.099 37.7801 201.584 34.3275C204.169 30.7764 207.747 28.113 212.32 26.1401C216.892 24.2659 222.16 23.2795 228.124 23.2795C237.766 23.3781 245.42 25.4496 251.285 29.3954C257.249 33.3411 260.43 38.8651 260.927 45.9674H242.538C242.24 43.3041 240.848 41.2326 238.263 39.5556C235.778 37.8787 232.598 36.9909 228.622 36.9909C224.944 36.9909 221.962 37.6814 219.675 39.0624C217.489 40.4434 216.395 42.219 216.395 44.4878C216.395 46.1647 216.992 47.3485 218.184 48.1376C219.377 48.9268 220.968 49.5186 222.856 49.9132C224.745 50.3078 228.025 50.7023 232.498 51.0969C242.041 52.182 249.297 54.2535 254.267 57.2128C259.436 60.0735 261.921 65.1043 261.921 72.3052C261.921 76.8428 260.529 80.7886 257.846 84.2411C255.162 87.6936 251.484 90.357 246.613 92.2312C241.842 94.0068 236.275 94.9932 230.013 94.9932C220.272 94.9932 212.22 92.823 206.157 88.5814C199.994 84.2411 196.813 78.3225 196.415 70.9242H214.705Z" stroke="black" stroke-width="2" mask="url(#path-1-inside-1_106066_1228)"/>
<path d="M330.112 31.9605C324.744 26.9296 317.985 24.3649 309.635 24.3649C300.987 24.3649 294.029 27.5215 288.761 33.8347V0H269.378V94.9936H288.761V59.186C288.761 53.1688 290.053 48.5325 292.836 45.1787C295.62 41.8248 299.496 40.1479 304.466 40.1479C309.238 40.1479 312.816 41.7261 315.202 44.7841C317.587 47.7434 318.78 52.0837 318.78 57.9037V94.9936H338.164V57.1145C338.164 45.3759 335.48 36.9913 330.112 31.9605Z" stroke="black" stroke-width="2" mask="url(#path-1-inside-1_106066_1228)"/>
<path d="M345.617 25.1537H365V94.8945H345.617V25.1537Z" stroke="black" stroke-width="2" mask="url(#path-1-inside-1_106066_1228)"/>
<path d="M362.12 2.76201C360.331 0.986434 358.044 0 355.261 0C352.577 0 350.192 0.986434 348.303 2.76201C346.514 4.53759 345.52 6.70775 345.52 9.37112C345.52 12.0345 346.514 14.3033 348.303 16.0789C350.192 17.8545 352.577 18.8409 355.261 18.8409C357.945 18.8409 360.331 17.9531 362.12 16.0789C363.909 14.2046 364.903 12.0345 364.903 9.37112C364.903 6.70775 363.909 4.43895 362.12 2.76201Z" stroke="black" stroke-width="2" mask="url(#path-1-inside-1_106066_1228)"/>
</svg>
