<svg width="545" height="229" viewBox="0 0 545 229" fill="none" xmlns="http://www.w3.org/2000/svg">
<rect width="545" height="229" fill="#00D991"/>
<mask id="path-1-inside-1_106066_1227" fill="white">
<path d="M278.961 67H259.577V161.994H278.961V67Z"/>
<path d="M90 67.1051H110.576V109.719L149.044 67.1051H173.994L138.707 106.168L176.281 162H151.629L124.194 121.951L110.576 137.043V162H90V67.1051Z"/>
<path fill-rule="evenodd" clip-rule="evenodd" d="M252.123 161.105H242.282C233.435 161.105 229.062 157.258 229.26 149.663C226.676 153.608 223.495 156.666 219.817 158.738C216.04 160.809 211.567 161.894 206.199 161.894C198.346 161.894 191.985 160.119 187.114 156.568C182.343 152.918 179.957 147.887 179.957 141.377C179.957 133.978 182.74 128.257 188.208 124.311C193.774 120.267 201.826 118.195 212.362 118.195H226.378V114.842C226.378 111.685 225.185 109.219 222.799 107.345C220.414 105.47 217.233 104.484 213.157 104.484C209.579 104.484 206.696 105.273 204.41 106.753C202.124 108.331 200.732 110.403 200.335 112.967H181.548C182.144 105.865 185.424 100.341 191.19 96.3953C196.955 92.4496 204.609 90.378 214.151 90.378C224.091 90.378 231.845 92.5482 237.212 96.8885C242.68 101.229 245.463 107.542 245.463 115.729V140.292C245.463 141.969 245.86 143.152 246.556 143.843C247.252 144.435 248.445 144.829 250.035 144.829H252.123V161.105ZM212.163 130.92C208.187 130.92 205.006 131.71 202.72 133.387C200.533 134.965 199.44 137.135 199.44 139.996C199.44 142.462 200.335 144.336 202.223 145.816C204.112 147.295 206.696 147.986 209.877 147.986C214.947 147.986 218.923 146.605 221.805 143.744C224.688 140.883 226.278 137.036 226.378 132.203V130.92H212.163Z"/>
<path d="M304.705 137.924C305.004 140.982 306.495 143.448 309.278 145.421C312.061 147.295 315.54 148.282 319.814 148.282C323.89 148.282 327.17 147.69 329.556 146.408C331.941 145.027 333.134 143.152 333.134 140.686C333.134 138.911 332.538 137.53 331.444 136.642C330.351 135.754 328.76 135.064 326.772 134.768C324.784 134.274 321.504 133.781 316.932 133.288C310.669 132.499 305.501 131.414 301.425 130.131C297.35 128.849 293.97 126.876 291.584 124.114C289.099 121.352 287.906 117.801 287.906 113.263C287.906 108.726 289.099 104.78 291.584 101.328C294.169 97.7764 297.747 95.113 302.32 93.1401C306.892 91.2659 312.16 90.2795 318.124 90.2795C327.766 90.3781 335.42 92.4496 341.285 96.3954C347.249 100.341 350.43 105.865 350.927 112.967H332.538C332.24 110.304 330.848 108.233 328.263 106.556C325.778 104.879 322.598 103.991 318.622 103.991C314.944 103.991 311.962 104.681 309.675 106.062C307.489 107.443 306.395 109.219 306.395 111.488C306.395 113.165 306.992 114.348 308.184 115.138C309.377 115.927 310.968 116.519 312.856 116.913C314.745 117.308 318.025 117.702 322.498 118.097C332.041 119.182 339.297 121.253 344.267 124.213C349.436 127.073 351.921 132.104 351.921 139.305C351.921 143.843 350.529 147.789 347.846 151.241C345.162 154.694 341.484 157.357 336.613 159.231C331.842 161.007 326.275 161.993 320.013 161.993C310.272 161.993 302.22 159.823 296.157 155.581C289.994 151.241 286.813 145.322 286.415 137.924H304.705Z"/>
<path d="M420.112 98.9605C414.744 93.9296 407.985 91.3649 399.635 91.3649C390.987 91.3649 384.029 94.5215 378.761 100.835V67H359.378V161.994H378.761V126.186C378.761 120.169 380.053 115.533 382.836 112.179C385.62 108.825 389.496 107.148 394.466 107.148C399.238 107.148 402.816 108.726 405.202 111.784C407.587 114.743 408.78 119.084 408.78 124.904V161.994H428.164V124.115C428.164 112.376 425.48 103.991 420.112 98.9605Z"/>
<path d="M435.617 92.1537H455V161.895H435.617V92.1537Z"/>
<path d="M452.12 69.762C450.331 67.9864 448.044 67 445.261 67C442.577 67 440.192 67.9864 438.303 69.762C436.514 71.5376 435.52 73.7077 435.52 76.3711C435.52 79.0345 436.514 81.3033 438.303 83.0789C440.192 84.8545 442.577 85.8409 445.261 85.8409C447.945 85.8409 450.331 84.9531 452.12 83.0789C453.909 81.2046 454.903 79.0345 454.903 76.3711C454.903 73.7077 453.909 71.439 452.12 69.762Z"/>
</mask>
<path d="M278.961 67H259.577V161.994H278.961V67Z" fill="black"/>
<path d="M90 67.1051H110.576V109.719L149.044 67.1051H173.994L138.707 106.168L176.281 162H151.629L124.194 121.951L110.576 137.043V162H90V67.1051Z" fill="black"/>
<path fill-rule="evenodd" clip-rule="evenodd" d="M252.123 161.105H242.282C233.435 161.105 229.062 157.258 229.26 149.663C226.676 153.608 223.495 156.666 219.817 158.738C216.04 160.809 211.567 161.894 206.199 161.894C198.346 161.894 191.985 160.119 187.114 156.568C182.343 152.918 179.957 147.887 179.957 141.377C179.957 133.978 182.74 128.257 188.208 124.311C193.774 120.267 201.826 118.195 212.362 118.195H226.378V114.842C226.378 111.685 225.185 109.219 222.799 107.345C220.414 105.47 217.233 104.484 213.157 104.484C209.579 104.484 206.696 105.273 204.41 106.753C202.124 108.331 200.732 110.403 200.335 112.967H181.548C182.144 105.865 185.424 100.341 191.19 96.3953C196.955 92.4496 204.609 90.378 214.151 90.378C224.091 90.378 231.845 92.5482 237.212 96.8885C242.68 101.229 245.463 107.542 245.463 115.729V140.292C245.463 141.969 245.86 143.152 246.556 143.843C247.252 144.435 248.445 144.829 250.035 144.829H252.123V161.105ZM212.163 130.92C208.187 130.92 205.006 131.71 202.72 133.387C200.533 134.965 199.44 137.135 199.44 139.996C199.44 142.462 200.335 144.336 202.223 145.816C204.112 147.295 206.696 147.986 209.877 147.986C214.947 147.986 218.923 146.605 221.805 143.744C224.688 140.883 226.278 137.036 226.378 132.203V130.92H212.163Z" fill="black"/>
<path d="M304.705 137.924C305.004 140.982 306.495 143.448 309.278 145.421C312.061 147.295 315.54 148.282 319.814 148.282C323.89 148.282 327.17 147.69 329.556 146.408C331.941 145.027 333.134 143.152 333.134 140.686C333.134 138.911 332.538 137.53 331.444 136.642C330.351 135.754 328.76 135.064 326.772 134.768C324.784 134.274 321.504 133.781 316.932 133.288C310.669 132.499 305.501 131.414 301.425 130.131C297.35 128.849 293.97 126.876 291.584 124.114C289.099 121.352 287.906 117.801 287.906 113.263C287.906 108.726 289.099 104.78 291.584 101.328C294.169 97.7764 297.747 95.113 302.32 93.1401C306.892 91.2659 312.16 90.2795 318.124 90.2795C327.766 90.3781 335.42 92.4496 341.285 96.3954C347.249 100.341 350.43 105.865 350.927 112.967H332.538C332.24 110.304 330.848 108.233 328.263 106.556C325.778 104.879 322.598 103.991 318.622 103.991C314.944 103.991 311.962 104.681 309.675 106.062C307.489 107.443 306.395 109.219 306.395 111.488C306.395 113.165 306.992 114.348 308.184 115.138C309.377 115.927 310.968 116.519 312.856 116.913C314.745 117.308 318.025 117.702 322.498 118.097C332.041 119.182 339.297 121.253 344.267 124.213C349.436 127.073 351.921 132.104 351.921 139.305C351.921 143.843 350.529 147.789 347.846 151.241C345.162 154.694 341.484 157.357 336.613 159.231C331.842 161.007 326.275 161.993 320.013 161.993C310.272 161.993 302.22 159.823 296.157 155.581C289.994 151.241 286.813 145.322 286.415 137.924H304.705Z" fill="black"/>
<path d="M420.112 98.9605C414.744 93.9296 407.985 91.3649 399.635 91.3649C390.987 91.3649 384.029 94.5215 378.761 100.835V67H359.378V161.994H378.761V126.186C378.761 120.169 380.053 115.533 382.836 112.179C385.62 108.825 389.496 107.148 394.466 107.148C399.238 107.148 402.816 108.726 405.202 111.784C407.587 114.743 408.78 119.084 408.78 124.904V161.994H428.164V124.115C428.164 112.376 425.48 103.991 420.112 98.9605Z" fill="black"/>
<path d="M435.617 92.1537H455V161.895H435.617V92.1537Z" fill="black"/>
<path d="M452.12 69.762C450.331 67.9864 448.044 67 445.261 67C442.577 67 440.192 67.9864 438.303 69.762C436.514 71.5376 435.52 73.7077 435.52 76.3711C435.52 79.0345 436.514 81.3033 438.303 83.0789C440.192 84.8545 442.577 85.8409 445.261 85.8409C447.945 85.8409 450.331 84.9531 452.12 83.0789C453.909 81.2046 454.903 79.0345 454.903 76.3711C454.903 73.7077 453.909 71.439 452.12 69.762Z" fill="black"/>
<path d="M278.961 67H259.577V161.994H278.961V67Z" stroke="black" stroke-width="2" mask="url(#path-1-inside-1_106066_1227)"/>
<path d="M90 67.1051H110.576V109.719L149.044 67.1051H173.994L138.707 106.168L176.281 162H151.629L124.194 121.951L110.576 137.043V162H90V67.1051Z" stroke="black" stroke-width="2" mask="url(#path-1-inside-1_106066_1227)"/>
<path fill-rule="evenodd" clip-rule="evenodd" d="M252.123 161.105H242.282C233.435 161.105 229.062 157.258 229.26 149.663C226.676 153.608 223.495 156.666 219.817 158.738C216.04 160.809 211.567 161.894 206.199 161.894C198.346 161.894 191.985 160.119 187.114 156.568C182.343 152.918 179.957 147.887 179.957 141.377C179.957 133.978 182.74 128.257 188.208 124.311C193.774 120.267 201.826 118.195 212.362 118.195H226.378V114.842C226.378 111.685 225.185 109.219 222.799 107.345C220.414 105.47 217.233 104.484 213.157 104.484C209.579 104.484 206.696 105.273 204.41 106.753C202.124 108.331 200.732 110.403 200.335 112.967H181.548C182.144 105.865 185.424 100.341 191.19 96.3953C196.955 92.4496 204.609 90.378 214.151 90.378C224.091 90.378 231.845 92.5482 237.212 96.8885C242.68 101.229 245.463 107.542 245.463 115.729V140.292C245.463 141.969 245.86 143.152 246.556 143.843C247.252 144.435 248.445 144.829 250.035 144.829H252.123V161.105ZM212.163 130.92C208.187 130.92 205.006 131.71 202.72 133.387C200.533 134.965 199.44 137.135 199.44 139.996C199.44 142.462 200.335 144.336 202.223 145.816C204.112 147.295 206.696 147.986 209.877 147.986C214.947 147.986 218.923 146.605 221.805 143.744C224.688 140.883 226.278 137.036 226.378 132.203V130.92H212.163Z" stroke="black" stroke-width="2" mask="url(#path-1-inside-1_106066_1227)"/>
<path d="M304.705 137.924C305.004 140.982 306.495 143.448 309.278 145.421C312.061 147.295 315.54 148.282 319.814 148.282C323.89 148.282 327.17 147.69 329.556 146.408C331.941 145.027 333.134 143.152 333.134 140.686C333.134 138.911 332.538 137.53 331.444 136.642C330.351 135.754 328.76 135.064 326.772 134.768C324.784 134.274 321.504 133.781 316.932 133.288C310.669 132.499 305.501 131.414 301.425 130.131C297.35 128.849 293.97 126.876 291.584 124.114C289.099 121.352 287.906 117.801 287.906 113.263C287.906 108.726 289.099 104.78 291.584 101.328C294.169 97.7764 297.747 95.113 302.32 93.1401C306.892 91.2659 312.16 90.2795 318.124 90.2795C327.766 90.3781 335.42 92.4496 341.285 96.3954C347.249 100.341 350.43 105.865 350.927 112.967H332.538C332.24 110.304 330.848 108.233 328.263 106.556C325.778 104.879 322.598 103.991 318.622 103.991C314.944 103.991 311.962 104.681 309.675 106.062C307.489 107.443 306.395 109.219 306.395 111.488C306.395 113.165 306.992 114.348 308.184 115.138C309.377 115.927 310.968 116.519 312.856 116.913C314.745 117.308 318.025 117.702 322.498 118.097C332.041 119.182 339.297 121.253 344.267 124.213C349.436 127.073 351.921 132.104 351.921 139.305C351.921 143.843 350.529 147.789 347.846 151.241C345.162 154.694 341.484 157.357 336.613 159.231C331.842 161.007 326.275 161.993 320.013 161.993C310.272 161.993 302.22 159.823 296.157 155.581C289.994 151.241 286.813 145.322 286.415 137.924H304.705Z" stroke="black" stroke-width="2" mask="url(#path-1-inside-1_106066_1227)"/>
<path d="M420.112 98.9605C414.744 93.9296 407.985 91.3649 399.635 91.3649C390.987 91.3649 384.029 94.5215 378.761 100.835V67H359.378V161.994H378.761V126.186C378.761 120.169 380.053 115.533 382.836 112.179C385.62 108.825 389.496 107.148 394.466 107.148C399.238 107.148 402.816 108.726 405.202 111.784C407.587 114.743 408.78 119.084 408.78 124.904V161.994H428.164V124.115C428.164 112.376 425.48 103.991 420.112 98.9605Z" stroke="black" stroke-width="2" mask="url(#path-1-inside-1_106066_1227)"/>
<path d="M435.617 92.1537H455V161.895H435.617V92.1537Z" stroke="black" stroke-width="2" mask="url(#path-1-inside-1_106066_1227)"/>
<path d="M452.12 69.762C450.331 67.9864 448.044 67 445.261 67C442.577 67 440.192 67.9864 438.303 69.762C436.514 71.5376 435.52 73.7077 435.52 76.3711C435.52 79.0345 436.514 81.3033 438.303 83.0789C440.192 84.8545 442.577 85.8409 445.261 85.8409C447.945 85.8409 450.331 84.9531 452.12 83.0789C453.909 81.2046 454.903 79.0345 454.903 76.3711C454.903 73.7077 453.909 71.439 452.12 69.762Z" stroke="black" stroke-width="2" mask="url(#path-1-inside-1_106066_1227)"/>
</svg>
